<svg width="175" height="40" viewBox="0 0 175 40" fill="none" xmlns="http://www.w3.org/2000/svg">
<path d="M27.4705 25.3628L26.2322 27.2808L26.2332 27.2817C25.9743 27.7346 25.6517 28.1207 25.3425 28.4917L25.3367 28.4985L25.3298 28.5054C25.3069 28.5282 25.2837 28.5446 25.2644 28.5581V28.5708L25.0193 28.8159L24.9958 28.8384L24.9675 28.853L24.8425 28.9155L24.8318 28.9214V28.9204C21.1027 30.5005 18.0002 29.8067 16.4753 29.2349H16.4744C14.7104 28.5658 12.9496 28.5052 11.3103 28.9302L11.3064 28.9312C10.0319 29.2346 8.8159 29.8418 7.71948 30.7554L7.70093 30.771L7.68042 30.7808C7.59044 30.8258 7.4888 30.9245 7.42163 30.9917L7.41479 30.9985L7.40796 31.0044L7.03491 31.3149L6.92065 31.4106L6.79663 31.3276L6.42358 31.0796C6.30019 30.9973 6.17965 30.9301 6.06714 30.8413L5.95776 30.7437C5.93438 30.7203 5.91677 30.6969 5.90308 30.6772H5.89819L5.84155 30.6274L5.28198 30.1294L5.12378 29.9888L5.27319 29.8384L5.52222 29.5903L5.5271 29.5845L5.53296 29.5796L6.40405 28.8335L6.41382 28.8247C7.59294 27.9404 8.88968 27.2172 10.2517 26.8159L10.5251 26.7397C12.6201 26.1688 14.9006 26.2974 17.1121 27.1187L17.6023 27.2856C20.0495 28.047 22.5149 27.6932 25.2166 26.1987L27.2048 25.0806L27.4705 25.3628Z" fill="#55B02E" stroke="black" stroke-width="0.4"/>
<path d="M27.3049 14.1809L27.6125 15.0442L27.7932 15.5081C27.8458 15.6509 27.8912 15.7896 27.9241 15.9153L28.0481 16.2258L28.0969 16.3489L27.7551 16.6907L27.6926 16.7522L26.76 17.6858L26.7532 17.6926C20.9641 22.9153 15.7812 21.8546 13.7395 21.0891H13.7385C11.9747 20.4201 10.2136 20.3586 8.57446 20.7834L8.57544 20.7844C6.0934 21.4504 4.3288 23.079 3.02075 24.2629C2.97506 24.3383 2.91932 24.3946 2.88208 24.4319C2.85723 24.4567 2.83913 24.4754 2.82544 24.4915L2.79517 24.5354L2.78735 24.553L2.77466 24.5676L2.15356 25.3762L1.93384 25.6614L1.80786 25.3245L1.43481 24.3293L1.42896 24.3147L1.42603 24.2991C1.39711 24.1545 1.35302 24.0079 1.30591 23.8508C1.26063 23.6999 1.21218 23.5384 1.17896 23.3752L1.11646 23.1262L1.08911 23.0168L1.35571 22.7502L1.42212 22.6965V22.6877L1.47583 22.6301L2.40845 21.636L2.75415 21.2668V21.385C4.29563 20.0335 5.9601 19.0634 7.8479 18.5325H7.84985L8.24438 18.4338C10.229 17.9802 12.3626 18.1409 14.4358 18.9104H14.4368C19.1686 20.6089 23.3155 17.8279 26.0403 15.0413L26.0422 15.0393L26.2317 14.8733C26.2804 14.8315 26.3028 14.8062 26.3157 14.7805L26.3303 14.7512L27.1985 13.8831L27.3049 14.1809Z" fill="#55B02E" stroke="black" stroke-width="0.4"/>
<path d="M25.2861 11.019L25.6592 11.5171L25.915 11.8911C25.9531 11.9482 25.989 12.0006 26.0254 12.0483L26.1387 12.1792L26.1523 12.1929L26.1631 12.2095L26.4121 12.5825L26.5137 12.7349L26.3711 12.8501L26.0684 13.0903L25.2676 13.8921L25.2627 13.8979L25.2559 13.9028C23.1347 15.712 18.2046 19.1401 12.4971 17.0474H12.4951C10.7324 16.3787 8.97227 16.3167 7.33398 16.7407L7.33496 16.7417C5.62793 17.2295 4.04215 18.1433 2.63672 19.6099L2.62207 19.6255L2.60352 19.6382C2.53086 19.6866 2.46614 19.7497 2.40039 19.8228C2.34359 19.8859 2.26637 19.9776 2.20117 20.0435L2.20215 20.0444L1.14551 21.1636L0.779297 21.5513L0.799805 21.0181L0.862305 19.4634L0.863281 19.4507L0.865234 19.439L0.900391 19.1616C0.909763 19.065 0.916978 18.9636 0.924805 18.8579C0.939848 18.6548 0.955679 18.4362 0.986328 18.2163V17.9585L1.04492 17.8999L1.16992 17.7759L1.18066 17.7642C1.18731 17.7575 1.18593 17.7599 1.19238 17.7534C1.1997 17.7461 1.19024 17.7546 1.19727 17.7476L1.20312 17.7417C1.20445 17.7404 1.20444 17.7414 1.20605 17.7397C1.20865 17.7372 1.20542 17.7394 1.20801 17.7368C1.2092 17.7356 1.2127 17.7331 1.21387 17.7319C1.21522 17.7306 1.21744 17.7274 1.21875 17.7261L1.24805 17.6968C1.25269 17.6921 1.24644 17.6994 1.25098 17.6948V17.6938L1.3252 17.6196C1.32946 17.6154 1.3295 17.6163 1.33398 17.6118C1.33621 17.6096 1.33571 17.6091 1.33789 17.6069L1.33984 17.605C1.34091 17.6039 1.34175 17.6041 1.34277 17.603C1.34351 17.6023 1.34583 17.599 1.34668 17.5981C1.34556 17.5993 1.34529 17.5995 1.34863 17.5962C1.34983 17.595 1.34939 17.5964 1.35059 17.5952C1.35192 17.5939 1.35029 17.5955 1.35156 17.5942V17.5933L1.37891 17.5659C1.38069 17.5641 1.37912 17.5667 1.38086 17.5649C1.38301 17.5628 1.3853 17.5595 1.38184 17.563L1.3877 17.5571C1.39742 17.5474 1.38223 17.5636 1.39258 17.5532C1.39772 17.5481 1.39155 17.5533 1.39648 17.5483L1.44434 17.5005C1.44869 17.4961 1.44275 17.503 1.44727 17.4985L1.45801 17.4868L1.45996 17.4849H1.46094C1.4618 17.484 1.46204 17.4828 1.46289 17.4819L1.48047 17.4644L1.49609 17.4507L2.80176 16.3931L2.80957 16.3872L2.81836 16.3813C4.07351 15.5655 5.33591 14.9333 6.66602 14.5532H6.66797L7.06348 14.4536C8.91652 14.0301 10.8995 14.1425 12.8418 14.7856L13.2568 14.9312L13.2588 14.9321L13.6777 15.0786C17.9922 16.4746 21.7874 14.0756 24.3047 11.6782L25.1484 10.8345L25.2861 11.019Z" fill="#55B02E" stroke="black" stroke-width="0.4"/>
<path d="M12.2241 30.6835C14.2072 30.2302 16.339 30.3902 18.4106 31.1581H18.4116C18.5111 31.1912 18.594 31.2248 18.6714 31.2557C18.7494 31.2869 18.8227 31.3156 18.9097 31.3446C18.998 31.374 19.1025 31.404 19.2124 31.4354C19.3187 31.4658 19.4305 31.4978 19.5278 31.5302L21.3179 31.9618L21.9702 32.119L21.3384 32.3446L19.603 32.9637C19.2103 33.1567 18.6955 33.2871 18.2788 33.4061L18.1011 33.4657L18.0317 33.4891L17.9634 33.4618L17.6636 33.3407V33.3417C17.5641 33.3085 17.4813 33.275 17.4038 33.244C17.326 33.2129 17.2533 33.1841 17.1665 33.1552V33.1542C15.4679 32.6086 13.894 32.6078 12.4409 32.9686C12.3291 33.0246 12.1733 33.1023 12.0063 33.1024C11.9547 33.1024 11.8917 33.1202 11.8032 33.1571L11.5093 33.2792L11.3228 33.3417L11.2603 33.3622L11.1968 33.3417L11.0103 33.2792L9.88818 32.9052L8.64404 32.4696L8.19775 32.3134L8.62061 32.1024L8.99365 31.9159L9.00049 31.913L10.4927 31.2284L10.4976 31.2264L10.8335 31.0936C11.1688 30.9709 11.5016 30.876 11.8267 30.7831L11.8286 30.7821L12.2241 30.6835Z" fill="#55B02E" stroke="black" stroke-width="0.4"/>
<path d="M28.5598 18.6719L28.4973 20.0938H28.4983C28.4983 20.2892 28.4815 20.4991 28.4661 20.6992C28.4504 20.9029 28.4358 21.0971 28.4358 21.2744V21.5439L28.1907 21.7891C28.1172 21.8625 28.0439 21.9169 27.9827 21.9629C27.9196 22.0102 27.8684 22.0498 27.8176 22.1006L27.8118 22.1055L27.8059 22.1113C25.6745 23.9293 22.7777 25.5707 19.8635 25.8877L19.8645 25.8887C18.2171 26.0788 16.5689 25.8883 14.9856 25.3184L14.9817 25.3174C13.2181 24.6485 11.4576 24.587 9.8186 25.0117L9.81958 25.0127C7.9944 25.4994 6.40903 26.4717 4.9397 28.0635L4.93481 28.0693C4.90373 28.1004 4.85645 28.1477 4.80981 28.1943C4.76773 28.2364 4.72518 28.278 4.69458 28.3086L4.26685 28.8594L4.09692 29.0781L3.94263 28.8477L3.56958 28.2881L3.56274 28.2773L3.55688 28.2666C3.43985 28.0325 3.32322 27.8564 3.14087 27.6133L3.13403 27.6045L3.30103 27.4932L3.13403 27.6035L2.88599 27.2305L2.80493 27.1094L2.89575 26.9951L3.14478 26.6836L3.14868 26.6777L3.15454 26.6729L3.96216 25.8027L3.96997 25.7939L4.10864 25.9385L3.97095 25.7939C5.54833 24.2797 7.3175 23.268 9.27661 22.6992L9.27954 22.6982L9.67505 22.5996C11.6604 22.1459 13.7955 22.3068 15.8694 23.0771H15.8704L16.2893 23.2246C20.6048 24.6163 24.4545 22.1639 26.9124 19.8271L27.2854 19.4541L28.219 18.5215L28.5823 18.1582L28.5598 18.6719Z" fill="#55B02E" stroke="black" stroke-width="0.4"/>
<path d="M22.2524 8.36157L22.6255 8.60962H22.6245C22.8803 8.74079 23.1317 8.9276 23.3247 9.11743L23.8813 9.55103L24.0815 9.70728L23.8833 9.86548L23.5728 10.1135L22.6401 10.8606L22.6343 10.8645C20.1803 12.6893 17.5277 13.6399 14.8667 13.6399C13.5405 13.6399 12.3348 13.4506 11.1284 13.0061L11.1265 13.0051C9.36464 12.3369 7.6058 12.2752 5.96826 12.6985C5.58493 12.826 5.17489 12.9444 4.8208 13.1213L4.80811 13.1282L4.79443 13.1321C4.64758 13.181 4.36897 13.3129 4.03857 13.3264L2.14893 14.302L1.47314 14.6506L1.89014 14.0139L3.0708 12.2112L3.07178 12.2102L3.27686 11.928C3.34715 11.8376 3.41828 11.7502 3.48779 11.6653C3.62866 11.4931 3.76233 11.3296 3.88037 11.1526L3.89111 11.136L3.90576 11.1223C3.92885 11.0992 3.95174 11.0822 3.97119 11.0686V11.0559L4.21631 10.8108L4.23975 10.7883L4.26807 10.7737L4.4126 10.7014L4.43408 10.6965C4.67447 10.6364 4.8544 10.576 5.04053 10.5139L5.04541 10.5129L5.47412 10.3918C7.47537 9.8768 9.47315 10.032 11.4614 10.6799L11.8872 10.8264L11.8911 10.8274L11.8208 11.012L11.8911 10.8284C14.9193 11.9789 18.1436 11.323 21.3999 8.86548L21.4146 8.85474L21.4302 8.84595C21.4588 8.83161 21.4839 8.8088 21.5337 8.75903C21.5722 8.72053 21.6311 8.66188 21.7104 8.61548L22.0171 8.37134L22.1313 8.28052L22.2524 8.36157Z" fill="#55B02E" stroke="black" stroke-width="0.4"/>
<path d="M17.803 6.52405L17.8176 6.526L18.1477 6.58655C18.4665 6.65639 18.7549 6.7525 19.0334 6.84534L20.8059 7.43616L20.3635 7.65002L18.4358 8.58362L18.4231 8.58948V8.5885C16.8515 9.21714 15.2715 9.59822 13.6233 9.59827C12.0478 9.59827 10.7831 9.28344 9.95337 8.96545V8.96643L9.76685 8.90393C9.67006 8.87167 9.59051 8.84515 9.52173 8.83264C9.4518 8.81998 9.42652 8.82861 9.42212 8.83069L9.35181 8.86584L9.27661 8.84338L7.78442 8.40881L7.25317 8.25354L7.76001 8.03284L9.18091 7.41565L9.47095 7.28186C9.76065 7.1581 10.0478 7.06224 10.3264 6.96936L10.5129 6.90784L10.5764 6.88635L10.6389 6.90784L10.8254 6.96936L11.1057 7.06311C11.1981 7.09391 11.2907 7.12411 11.3831 7.15491C13.1391 7.63758 14.959 7.51766 16.7874 6.84729L16.7932 6.84534L16.9133 6.79651C16.9549 6.7774 16.9993 6.75597 17.0471 6.73206C17.1377 6.68679 17.2437 6.63269 17.3528 6.59631L17.5393 6.53479L17.5706 6.52405H17.803Z" fill="#55B02E" stroke="black" stroke-width="0.4"/>
<path d="M40.5239 36.548V19.888C40.5239 19.3093 40.5052 18.7213 40.4679 18.124C40.4305 17.5267 40.3745 16.9387 40.2999 16.36H43.6879L43.9959 19.328H43.6879C43.9679 18.3387 44.5559 17.5547 45.4519 16.976C46.3665 16.3787 47.4212 16.08 48.6159 16.08C49.8665 16.08 50.9585 16.3787 51.8919 16.976C52.8252 17.5547 53.5532 18.3947 54.0759 19.496C54.5985 20.5787 54.8599 21.8853 54.8599 23.416C54.8599 24.9467 54.5985 26.2627 54.0759 27.364C53.5532 28.4653 52.8252 29.3147 51.8919 29.912C50.9585 30.4907 49.8665 30.78 48.6159 30.78C47.4399 30.78 46.4039 30.4907 45.5079 29.912C44.6119 29.3333 44.0145 28.5587 43.7159 27.588H44.0239V36.548H40.5239ZM47.6359 28.092C48.7559 28.092 49.6519 27.7093 50.3239 26.944C50.9959 26.16 51.3319 24.984 51.3319 23.416C51.3319 21.848 50.9959 20.6813 50.3239 19.916C49.6519 19.1507 48.7559 18.768 47.6359 18.768C46.5345 18.768 45.6479 19.1507 44.9759 19.916C44.3039 20.6813 43.9679 21.848 43.9679 23.416C43.9679 24.984 44.3039 26.16 44.9759 26.944C45.6479 27.7093 46.5345 28.092 47.6359 28.092ZM64.2712 30.78C62.8152 30.78 61.5552 30.4813 60.4912 29.884C59.4272 29.2867 58.5965 28.4373 57.9992 27.336C57.4205 26.2347 57.1312 24.928 57.1312 23.416C57.1312 21.904 57.4205 20.6067 57.9992 19.524C58.5965 18.4227 59.4272 17.5733 60.4912 16.976C61.5552 16.3787 62.8152 16.08 64.2712 16.08C65.7272 16.08 66.9872 16.3787 68.0512 16.976C69.1338 17.5733 69.9645 18.4227 70.5432 19.524C71.1405 20.6067 71.4392 21.904 71.4392 23.416C71.4392 24.928 71.1405 26.2347 70.5432 27.336C69.9645 28.4373 69.1338 29.2867 68.0512 29.884C66.9872 30.4813 65.7272 30.78 64.2712 30.78ZM64.2712 28.092C65.3725 28.092 66.2498 27.7093 66.9032 26.944C67.5565 26.16 67.8832 24.984 67.8832 23.416C67.8832 21.848 67.5565 20.6813 66.9032 19.916C66.2498 19.1507 65.3725 18.768 64.2712 18.768C63.1698 18.768 62.2925 19.1507 61.6392 19.916C60.9858 20.6813 60.6592 21.848 60.6592 23.416C60.6592 24.984 60.9858 26.16 61.6392 26.944C62.2925 27.7093 63.1698 28.092 64.2712 28.092ZM79.5535 30.78C77.8175 30.78 76.5201 30.304 75.6615 29.352C74.8028 28.4 74.3735 26.944 74.3735 24.984V16.36H77.8735V24.956C77.8735 26.0013 78.0881 26.776 78.5175 27.28C78.9468 27.7653 79.6001 28.008 80.4775 28.008C81.4668 28.008 82.2695 27.672 82.8855 27C83.5201 26.328 83.8375 25.4413 83.8375 24.34V16.36H87.3375V30.5H83.9215V27.616H84.3135C83.9028 28.624 83.2775 29.408 82.4375 29.968C81.6161 30.5093 80.6548 30.78 79.5535 30.78ZM91.1372 36.548V19.888C91.1372 19.3093 91.1185 18.7213 91.0812 18.124C91.0438 17.5267 90.9878 16.9387 90.9132 16.36H94.3012L94.6092 19.328H94.3012C94.5812 18.3387 95.1692 17.5547 96.0652 16.976C96.9798 16.3787 98.0345 16.08 99.2292 16.08C100.48 16.08 101.572 16.3787 102.505 16.976C103.438 17.5547 104.166 18.3947 104.689 19.496C105.212 20.5787 105.473 21.8853 105.473 23.416C105.473 24.9467 105.212 26.2627 104.689 27.364C104.166 28.4653 103.438 29.3147 102.505 29.912C101.572 30.4907 100.48 30.78 99.2292 30.78C98.0532 30.78 97.0172 30.4907 96.1212 29.912C95.2252 29.3333 94.6278 28.5587 94.3292 27.588H94.6372V36.548H91.1372ZM98.2492 28.092C99.3692 28.092 100.265 27.7093 100.937 26.944C101.609 26.16 101.945 24.984 101.945 23.416C101.945 21.848 101.609 20.6813 100.937 19.916C100.265 19.1507 99.3692 18.768 98.2492 18.768C97.1478 18.768 96.2612 19.1507 95.5892 19.916C94.9172 20.6813 94.5812 21.848 94.5812 23.416C94.5812 24.984 94.9172 26.16 95.5892 26.944C96.2612 27.7093 97.1478 28.092 98.2492 28.092ZM113.96 30.78C112.728 30.78 111.646 30.4907 110.712 29.912C109.779 29.3147 109.051 28.4653 108.528 27.364C108.006 26.2627 107.744 24.9467 107.744 23.416C107.744 21.8853 108.006 20.5787 108.528 19.496C109.051 18.3947 109.779 17.5547 110.712 16.976C111.646 16.3787 112.728 16.08 113.96 16.08C115.155 16.08 116.2 16.3787 117.096 16.976C118.011 17.5547 118.618 18.3387 118.916 19.328H118.608L118.916 16.36H122.276C122.22 16.9387 122.164 17.5267 122.108 18.124C122.071 18.7213 122.052 19.3093 122.052 19.888V30.5H118.58L118.552 27.588H118.888C118.59 28.5587 117.983 29.3333 117.068 29.912C116.154 30.4907 115.118 30.78 113.96 30.78ZM114.94 28.092C116.042 28.092 116.928 27.7093 117.6 26.944C118.272 26.16 118.608 24.984 118.608 23.416C118.608 21.848 118.272 20.6813 117.6 19.916C116.928 19.1507 116.042 18.768 114.94 18.768C113.839 18.768 112.952 19.1507 112.28 19.916C111.608 20.6813 111.272 21.848 111.272 23.416C111.272 24.984 111.599 26.16 112.252 26.944C112.924 27.7093 113.82 28.092 114.94 28.092ZM125.472 30.5V26.608H129.392V30.5H125.472ZM138.187 30.78C136.955 30.78 135.872 30.4907 134.939 29.912C134.006 29.3147 133.278 28.4653 132.755 27.364C132.232 26.2627 131.971 24.9467 131.971 23.416C131.971 21.8853 132.232 20.5787 132.755 19.496C133.278 18.3947 134.006 17.5547 134.939 16.976C135.872 16.3787 136.955 16.08 138.187 16.08C139.382 16.08 140.427 16.3787 141.323 16.976C142.238 17.5547 142.844 18.3387 143.143 19.328H142.835L143.143 16.36H146.503C146.447 16.9387 146.391 17.5267 146.335 18.124C146.298 18.7213 146.279 19.3093 146.279 19.888V30.5H142.807L142.779 27.588H143.115C142.816 28.5587 142.21 29.3333 141.295 29.912C140.38 30.4907 139.344 30.78 138.187 30.78ZM139.167 28.092C140.268 28.092 141.155 27.7093 141.827 26.944C142.499 26.16 142.835 24.984 142.835 23.416C142.835 21.848 142.499 20.6813 141.827 19.916C141.155 19.1507 140.268 18.768 139.167 18.768C138.066 18.768 137.179 19.1507 136.507 19.916C135.835 20.6813 135.499 21.848 135.499 23.416C135.499 24.984 135.826 26.16 136.479 26.944C137.151 27.7093 138.047 28.092 139.167 28.092ZM150.09 30.5V16.36H153.59V30.5H150.09ZM149.894 13.7V10.284H153.786V13.7H149.894Z" fill="black"/>
</svg>
