<svg width="174" height="40" viewBox="0 0 174 40" fill="none" xmlns="http://www.w3.org/2000/svg">
<path d="M16.0428 27.3064C13.8664 26.498 11.6279 26.3737 9.5759 26.9333C8.14571 27.3064 6.77772 28.0526 5.53408 28.9853L4.66352 29.7315L4.41479 29.9802L4.97443 30.4777C5.03661 30.4777 5.03662 30.5399 5.0988 30.602C5.22316 30.7264 5.34753 30.7886 5.53408 30.9129L5.90715 31.1617L6.28025 30.8508C6.34243 30.7886 6.46679 30.6642 6.59116 30.602C7.71043 29.6693 8.95406 29.0475 10.2599 28.7366C11.9388 28.3013 13.7421 28.3635 15.5453 29.0475C17.0377 29.6071 20.0846 30.2911 23.7533 28.7366L23.8777 28.6744L24.0643 28.4879C24.0643 28.4257 24.1264 28.4257 24.1886 28.3635C24.4995 27.9904 24.8104 27.6173 25.0592 27.182L26.3028 25.2544L24.313 26.3737C21.3904 27.9904 18.7166 28.3013 16.0428 27.3064Z" fill="#55B02E"/>
<path d="M7.52389 20.5906C9.2028 20.1553 11.0061 20.2175 12.8093 20.9015C14.7992 21.6477 19.8981 22.7048 25.6188 17.5437L26.5515 16.611L26.6137 16.5488L26.8624 16.3001L26.7381 15.9891C26.6759 15.7404 26.5515 15.4295 26.4272 15.1186L26.1162 14.248L25.4944 14.8699C25.4322 14.9942 25.3079 15.0564 25.1835 15.1808C22.4475 17.979 18.2192 20.8393 13.369 19.0982C11.1926 18.2899 8.95407 18.1655 6.90207 18.7251C4.91225 19.2848 3.17115 20.3419 1.55443 21.8342V21.7721L0.6217 22.767C0.6217 22.8291 0.55953 22.8292 0.497348 22.8913L0.310791 23.0779L0.372977 23.3266C0.435158 23.6375 0.559518 23.9484 0.6217 24.2593L0.994795 25.2542L1.61661 24.4459C1.67879 24.3215 1.80315 24.2593 1.86534 24.135C3.17115 22.9535 4.97443 21.2746 7.52389 20.5906Z" fill="#55B02E"/>
<path d="M1.49238 19.4715C2.92256 17.9792 4.53928 17.0464 6.28037 16.549C7.95928 16.1137 9.76255 16.1759 11.5658 16.8599C17.1622 18.9119 22.0124 15.5541 24.1266 13.7508L24.9349 12.9424L25.2458 12.6937L24.9971 12.3206C24.8106 12.1341 24.6862 11.8854 24.4997 11.6366L24.1266 11.1392L23.6913 11.5744C23.6291 11.6366 23.5047 11.761 23.4426 11.8232C20.8309 14.3104 16.7891 16.8599 12.1876 15.1188C10.0113 14.3104 7.77273 14.1861 5.72074 14.7457C4.41492 15.1188 3.17128 15.7406 1.92764 16.549L0.621818 17.6061C0.497455 17.7304 0.435273 17.7926 0.310909 17.917L0.186557 18.0413V18.2279C0.124375 18.6632 0.124367 19.0984 0.0621856 19.4715L0 21.0261L1.0571 19.9068C1.18146 19.7824 1.30583 19.5959 1.49238 19.4715Z" fill="#55B02E"/>
<path d="M17.8461 31.5349L17.7217 31.908L17.8461 31.5349C17.6595 31.4727 17.5352 31.4105 17.3486 31.3483C15.1723 30.54 12.9337 30.4156 10.8817 30.9753C10.4464 31.0996 10.0112 31.224 9.5759 31.4105L8.08352 32.0945L7.71045 32.2811L8.95409 32.7163C9.32718 32.8407 9.70026 32.9651 10.0734 33.0894L10.2599 33.1516L10.4464 33.0894C10.633 33.0273 10.8195 32.9029 11.0061 32.9029C11.1304 32.9029 11.2548 32.8407 11.3792 32.7785C12.8715 32.4054 14.4883 32.4054 16.2293 32.9651C16.4159 33.0272 16.5403 33.0894 16.7268 33.1516L17.0377 33.276L17.2243 33.2138C17.6595 33.0894 18.157 32.9651 18.5301 32.7785L20.2712 32.1567L18.4679 31.7214C18.2814 31.6592 18.0326 31.5971 17.8461 31.5349Z" fill="#55B02E"/>
<path d="M27.36 18.6631L26.4273 19.5958C26.3029 19.7202 26.1786 19.8445 26.0542 19.9689C23.5047 22.394 19.4007 25.0056 14.7993 23.2645C12.6229 22.4562 10.3844 22.3318 8.33237 22.8915C6.40473 23.4511 4.66363 24.446 3.10908 25.9384L2.30073 26.8089L2.052 27.1198L2.30073 27.4929C2.48727 27.7416 2.61164 27.9282 2.73601 28.1769L3.10908 28.7365L3.54436 28.1769C3.60654 28.1147 3.7309 27.9904 3.79309 27.9282C5.28545 26.3114 6.90218 25.3165 8.76763 24.8191C10.4465 24.3838 12.2498 24.446 14.0531 25.13C15.6076 25.6896 17.2244 25.8762 18.8411 25.6896C21.7015 25.3787 24.5618 23.762 26.676 21.9587C26.8004 21.8344 26.9247 21.7722 27.0491 21.6478L27.2356 21.4613V21.2747C27.2356 20.9016 27.2978 20.4664 27.2978 20.0933L27.36 18.6631Z" fill="#55B02E"/>
<path d="M3.73094 12.9423L3.5444 12.5692L3.73094 12.9423C4.10403 12.7557 4.53932 12.6313 4.91241 12.507C6.59132 12.0717 8.39459 12.1339 10.1979 12.8179C11.3793 13.2532 12.5608 13.4397 13.8666 13.4397C16.4782 13.4397 19.0899 12.507 21.5149 10.7037L22.4477 9.95752L22.7586 9.70879L22.1989 9.27351C22.0124 9.08697 21.7637 8.90043 21.5149 8.77607L21.1418 8.52734L20.8309 8.77607C20.7066 8.83825 20.6444 8.96261 20.52 9.02479C17.2244 11.5121 13.9288 12.1961 10.8197 11.0146C8.58114 10.2063 6.34258 10.0197 4.10403 10.7037C3.91749 10.7659 3.73094 10.8281 3.48222 10.8902L3.35786 10.9524L3.17131 11.139C3.17131 11.2012 3.10914 11.2012 3.04695 11.2633C2.79823 11.6364 2.48731 11.9473 2.23858 12.3204L1.05713 14.1237L2.98477 13.1288C3.29568 13.1288 3.54439 13.0044 3.73094 12.9423Z" fill="#55B02E"/>
<path d="M8.82991 8.71393L9.01645 8.77611C9.82482 9.08702 11.0685 9.39793 12.623 9.39793C14.2397 9.39793 15.7943 9.02484 17.3488 8.40302L19.2765 7.47029L17.9706 7.03503C17.5976 6.91067 17.2245 6.7863 16.7892 6.72412H16.6026L16.4161 6.78629C16.2296 6.84847 16.043 6.97285 15.8565 7.03503C13.991 7.71903 12.1255 7.84339 10.3223 7.34594C10.1357 7.28376 9.94919 7.22156 9.76264 7.15938L9.5761 7.0972L9.38955 7.15938C9.01646 7.28375 8.64337 7.40812 8.27028 7.59466L6.84009 8.21648L8.33247 8.65174C8.45683 8.58956 8.64337 8.65175 8.82991 8.71393Z" fill="#55B02E"/>
<path d="M39.5239 36.548V19.888C39.5239 19.3093 39.5052 18.7213 39.4679 18.124C39.4305 17.5267 39.3745 16.9387 39.2999 16.36H42.6879L42.9959 19.328H42.6879C42.9679 18.3387 43.5559 17.5547 44.4519 16.976C45.3665 16.3787 46.4212 16.08 47.6159 16.08C48.8665 16.08 49.9585 16.3787 50.8919 16.976C51.8252 17.5547 52.5532 18.3947 53.0759 19.496C53.5985 20.5787 53.8599 21.8853 53.8599 23.416C53.8599 24.9467 53.5985 26.2627 53.0759 27.364C52.5532 28.4653 51.8252 29.3147 50.8919 29.912C49.9585 30.4907 48.8665 30.78 47.6159 30.78C46.4399 30.78 45.4039 30.4907 44.5079 29.912C43.6119 29.3333 43.0145 28.5587 42.7159 27.588H43.0239V36.548H39.5239ZM46.6359 28.092C47.7559 28.092 48.6519 27.7093 49.3239 26.944C49.9959 26.16 50.3319 24.984 50.3319 23.416C50.3319 21.848 49.9959 20.6813 49.3239 19.916C48.6519 19.1507 47.7559 18.768 46.6359 18.768C45.5345 18.768 44.6479 19.1507 43.9759 19.916C43.3039 20.6813 42.9679 21.848 42.9679 23.416C42.9679 24.984 43.3039 26.16 43.9759 26.944C44.6479 27.7093 45.5345 28.092 46.6359 28.092ZM63.2712 30.78C61.8152 30.78 60.5552 30.4813 59.4912 29.884C58.4272 29.2867 57.5965 28.4373 56.9992 27.336C56.4205 26.2347 56.1312 24.928 56.1312 23.416C56.1312 21.904 56.4205 20.6067 56.9992 19.524C57.5965 18.4227 58.4272 17.5733 59.4912 16.976C60.5552 16.3787 61.8152 16.08 63.2712 16.08C64.7272 16.08 65.9872 16.3787 67.0512 16.976C68.1338 17.5733 68.9645 18.4227 69.5432 19.524C70.1405 20.6067 70.4392 21.904 70.4392 23.416C70.4392 24.928 70.1405 26.2347 69.5432 27.336C68.9645 28.4373 68.1338 29.2867 67.0512 29.884C65.9872 30.4813 64.7272 30.78 63.2712 30.78ZM63.2712 28.092C64.3725 28.092 65.2498 27.7093 65.9032 26.944C66.5565 26.16 66.8832 24.984 66.8832 23.416C66.8832 21.848 66.5565 20.6813 65.9032 19.916C65.2498 19.1507 64.3725 18.768 63.2712 18.768C62.1698 18.768 61.2925 19.1507 60.6392 19.916C59.9858 20.6813 59.6592 21.848 59.6592 23.416C59.6592 24.984 59.9858 26.16 60.6392 26.944C61.2925 27.7093 62.1698 28.092 63.2712 28.092ZM78.5535 30.78C76.8175 30.78 75.5201 30.304 74.6615 29.352C73.8028 28.4 73.3735 26.944 73.3735 24.984V16.36H76.8735V24.956C76.8735 26.0013 77.0881 26.776 77.5175 27.28C77.9468 27.7653 78.6001 28.008 79.4775 28.008C80.4668 28.008 81.2695 27.672 81.8855 27C82.5201 26.328 82.8375 25.4413 82.8375 24.34V16.36H86.3375V30.5H82.9215V27.616H83.3135C82.9028 28.624 82.2775 29.408 81.4375 29.968C80.6161 30.5093 79.6548 30.78 78.5535 30.78ZM90.1372 36.548V19.888C90.1372 19.3093 90.1185 18.7213 90.0812 18.124C90.0438 17.5267 89.9878 16.9387 89.9132 16.36H93.3012L93.6092 19.328H93.3012C93.5812 18.3387 94.1692 17.5547 95.0652 16.976C95.9798 16.3787 97.0345 16.08 98.2292 16.08C99.4798 16.08 100.572 16.3787 101.505 16.976C102.438 17.5547 103.166 18.3947 103.689 19.496C104.212 20.5787 104.473 21.8853 104.473 23.416C104.473 24.9467 104.212 26.2627 103.689 27.364C103.166 28.4653 102.438 29.3147 101.505 29.912C100.572 30.4907 99.4798 30.78 98.2292 30.78C97.0532 30.78 96.0172 30.4907 95.1212 29.912C94.2252 29.3333 93.6278 28.5587 93.3292 27.588H93.6372V36.548H90.1372ZM97.2492 28.092C98.3692 28.092 99.2652 27.7093 99.9372 26.944C100.609 26.16 100.945 24.984 100.945 23.416C100.945 21.848 100.609 20.6813 99.9372 19.916C99.2652 19.1507 98.3692 18.768 97.2492 18.768C96.1478 18.768 95.2612 19.1507 94.5892 19.916C93.9172 20.6813 93.5812 21.848 93.5812 23.416C93.5812 24.984 93.9172 26.16 94.5892 26.944C95.2612 27.7093 96.1478 28.092 97.2492 28.092ZM112.96 30.78C111.728 30.78 110.646 30.4907 109.712 29.912C108.779 29.3147 108.051 28.4653 107.528 27.364C107.006 26.2627 106.744 24.9467 106.744 23.416C106.744 21.8853 107.006 20.5787 107.528 19.496C108.051 18.3947 108.779 17.5547 109.712 16.976C110.646 16.3787 111.728 16.08 112.96 16.08C114.155 16.08 115.2 16.3787 116.096 16.976C117.011 17.5547 117.618 18.3387 117.916 19.328H117.608L117.916 16.36H121.276C121.22 16.9387 121.164 17.5267 121.108 18.124C121.071 18.7213 121.052 19.3093 121.052 19.888V30.5H117.58L117.552 27.588H117.888C117.59 28.5587 116.983 29.3333 116.068 29.912C115.154 30.4907 114.118 30.78 112.96 30.78ZM113.94 28.092C115.042 28.092 115.928 27.7093 116.6 26.944C117.272 26.16 117.608 24.984 117.608 23.416C117.608 21.848 117.272 20.6813 116.6 19.916C115.928 19.1507 115.042 18.768 113.94 18.768C112.839 18.768 111.952 19.1507 111.28 19.916C110.608 20.6813 110.272 21.848 110.272 23.416C110.272 24.984 110.599 26.16 111.252 26.944C111.924 27.7093 112.82 28.092 113.94 28.092ZM124.472 30.5V26.608H128.392V30.5H124.472ZM137.187 30.78C135.955 30.78 134.872 30.4907 133.939 29.912C133.006 29.3147 132.278 28.4653 131.755 27.364C131.232 26.2627 130.971 24.9467 130.971 23.416C130.971 21.8853 131.232 20.5787 131.755 19.496C132.278 18.3947 133.006 17.5547 133.939 16.976C134.872 16.3787 135.955 16.08 137.187 16.08C138.382 16.08 139.427 16.3787 140.323 16.976C141.238 17.5547 141.844 18.3387 142.143 19.328H141.835L142.143 16.36H145.503C145.447 16.9387 145.391 17.5267 145.335 18.124C145.298 18.7213 145.279 19.3093 145.279 19.888V30.5H141.807L141.779 27.588H142.115C141.816 28.5587 141.21 29.3333 140.295 29.912C139.38 30.4907 138.344 30.78 137.187 30.78ZM138.167 28.092C139.268 28.092 140.155 27.7093 140.827 26.944C141.499 26.16 141.835 24.984 141.835 23.416C141.835 21.848 141.499 20.6813 140.827 19.916C140.155 19.1507 139.268 18.768 138.167 18.768C137.066 18.768 136.179 19.1507 135.507 19.916C134.835 20.6813 134.499 21.848 134.499 23.416C134.499 24.984 134.826 26.16 135.479 26.944C136.151 27.7093 137.047 28.092 138.167 28.092ZM149.09 30.5V16.36H152.59V30.5H149.09ZM148.894 13.7V10.284H152.786V13.7H148.894Z" fill="white"/>
</svg>
